<?xml version="1.0" encoding="UTF-8" standalone="no"?>
<svg
   height="122.661"
   width="122.661"
   version="1.1"
   id="svg3"
   sodipodi:docname="fritzing.svg"
   xml:space="preserve"
   inkscape:version="1.4 (86a8ad7, 2024-10-11)"
   xmlns:inkscape="http://www.inkscape.org/namespaces/inkscape"
   xmlns:sodipodi="http://sodipodi.sourceforge.net/DTD/sodipodi-0.dtd"
   xmlns:xlink="http://www.w3.org/1999/xlink"
   xmlns="http://www.w3.org/2000/svg"
   xmlns:svg="http://www.w3.org/2000/svg"><defs
     id="defs3"><linearGradient
       id="linearGradient4684"><stop
         style="stop-color:#000000;stop-opacity:1"
         offset="0"
         id="stop4686" /><stop
         style="stop-color:#343434;stop-opacity:1"
         offset="1"
         id="stop4688" /></linearGradient><linearGradient
       id="linearGradient5048"><stop
         style="stop-color:#000000;stop-opacity:0"
         offset="0"
         id="stop5050" /><stop
         style="stop-color:#000000;stop-opacity:1"
         offset="0.5"
         id="stop5056" /><stop
         style="stop-color:#000000;stop-opacity:0"
         offset="1"
         id="stop5052" /></linearGradient><linearGradient
       id="linearGradient2937"><stop
         style="stop-color:#333333;stop-opacity:1"
         offset="0"
         id="stop2939" /><stop
         style="stop-color:#474747;stop-opacity:1"
         offset="1"
         id="stop2941" /></linearGradient><linearGradient
       id="linearGradient2929"><stop
         style="stop-color:#737373;stop-opacity:1"
         offset="0"
         id="stop2931" /><stop
         style="stop-color:#73a424;stop-opacity:1"
         offset="1"
         id="stop2933" /></linearGradient><linearGradient
       id="linearGradient5464"><stop
         style="stop-color:#73d216;stop-opacity:1"
         offset="0"
         id="stop5466" /><stop
         style="stop-color:#ffffff;stop-opacity:1"
         offset="1"
         id="stop5468" /></linearGradient><linearGradient
       id="linearGradient4360"><stop
         style="stop-color:#d8d8d8;stop-opacity:0"
         offset="0"
         id="stop4362" /><stop
         style="stop-color:#ffffff;stop-opacity:1"
         offset="1"
         id="stop4364" /></linearGradient><linearGradient
       x1="21.313709"
       y1="10.795495"
       x2="13.984389"
       y2="10.795495"
       id="linearGradient6447"
       xlink:href="#linearGradient5464"
       gradientUnits="userSpaceOnUse"
       gradientTransform="matrix(1,0,0,1.4112692,0,-7.1972126)"
       spreadMethod="reflect" /><linearGradient
       x1="27.16466"
       y1="41.576271"
       x2="37.249554"
       y2="33.886486"
       id="linearGradient3645"
       xlink:href="#linearGradient4360"
       gradientUnits="userSpaceOnUse"
       spreadMethod="reflect" /><linearGradient
       x1="40.751785"
       y1="43.994072"
       x2="7.5954852"
       y2="4.2193146"
       id="linearGradient3326"
       xlink:href="#linearGradient2937"
       gradientUnits="userSpaceOnUse"
       gradientTransform="matrix(0.889237,0,0,0.7822742,0.6229226,7.6471606)" /></defs><sodipodi:namedview
     id="namedview3"
     pagecolor="#ffffff"
     bordercolor="#000000"
     borderopacity="0.25"
     inkscape:showpageshadow="2"
     inkscape:pageopacity="0.0"
     inkscape:pagecheckerboard="0"
     inkscape:deskcolor="#d1d1d1"
     inkscape:zoom="4.3678575"
     inkscape:cx="52.542923"
     inkscape:cy="58.724443"
     inkscape:window-width="1920"
     inkscape:window-height="974"
     inkscape:window-x="-11"
     inkscape:window-y="-11"
     inkscape:window-maximized="1"
     inkscape:current-layer="svg3" /><linearGradient
     id="a"
     gradientUnits="userSpaceOnUse"
     x1="24.813559"
     x2="24.813559"
     y1="46.500004"
     y2="1.500003"
     gradientTransform="matrix(2.7258001,0,0,2.7258001,-4.0887001,-4.0887082)"><stop
       offset="0"
       stop-color="#e02d2d"
       id="stop1" /><stop
       offset="1"
       stop-color="#f75151"
       id="stop2" /></linearGradient><rect
     fill="url(#a)"
     height="122.661"
     ry="5.0451231"
     stroke-width="1.03059"
     width="122.661"
     x="0"
     y="0"
     id="rect2"
     style="fill:url(#a)" /><g
     stroke-width="0.340412"
     id="g3"
     transform="matrix(2.7258001,0,0,2.7258001,-4.0887001,-4.0887081)"><path
       d="m 32.632177,7.376005 c -0.545,-0.3135187 -1.237392,-0.4718105 -2.059489,-0.4718105 h -3.428981 c -0.56304,0 -1.097139,0.012251 -1.582909,0.042208 -0.494619,0.029957 -0.974943,0.09906 -1.424958,0.203226 -0.475896,0.1123361 -0.945671,0.3022856 -1.398756,0.5688277 -0.44322,0.2597342 -0.89698,0.6222728 -1.349733,1.0716153 -0.945318,0.8850703 -1.560783,1.8477545 -1.838563,2.8703505 -0.265862,0.97596 -0.401687,2.064937 -0.401687,3.238676 v 1.914817 h -1.716015 c -0.822429,0 -1.518576,0.160336 -2.059832,0.471808 -0.637248,0.365609 -0.960981,1.036559 -0.960981,1.993454 0,1.160123 0.524918,1.702396 0.960981,1.95498 0.541256,0.310798 1.237403,0.470792 2.059832,0.470792 h 1.716015 v 8.945336 c -1.810991,0.905496 -3.06302,2.774691 -3.06302,4.931542 0,3.044297 2.477171,5.513979 5.513304,5.513979 3.040553,0 5.513989,-2.469682 5.513989,-5.513979 0,-2.161954 -1.255099,-4.033535 -3.072554,-4.936655 v -8.940223 h 2.946604 c 0.825831,0 1.522652,-0.159994 2.061865,-0.472835 0.437441,-0.250541 0.958948,-0.792814 0.958948,-1.952937 0,-0.956895 -0.320673,-1.628188 -0.958948,-1.993454 -0.539203,-0.311472 -1.236034,-0.471808 -2.061865,-0.471808 H 24.03882 v -1.914817 c 0,-0.610358 0.05172,-1.152634 0.155565,-1.608786 0.09396,-0.39794 0.29446,-0.733927 0.615123,-1.037233 l 0.0068,-0.0058 0.0088,-0.0058 c 0.227046,-0.228415 0.492907,-0.354027 0.81358,-0.384664 0.42041,-0.04051 0.957579,-0.06162 1.589039,-0.06162 h 3.344546 c 0.822429,0 1.518575,-0.161695 2.059489,-0.473513 0.436063,-0.2485 0.957921,-0.793839 0.957921,-1.9519188 0,-0.9562161 -0.324075,-1.6281883 -0.957921,-1.9937911 z"
       fill="#ffffff"
       fill-opacity="0.847059"
       id="path2" /><path
       d="m 21.595009,33.576122 c -1.107356,0 -2.004678,0.89698 -2.004678,2.005705 0,1.109057 0.897322,2.007063 2.004678,2.007063 1.107698,0 2.010134,-0.898006 2.010134,-2.007063 0,-1.108725 -0.902436,-2.005705 -2.010134,-2.005705 z"
       fill="#4b1100"
       id="path3" /></g></svg>
